<?xml version="1.0" encoding="UTF-8" standalone="no"?>
<!-- Created with Inkscape (http://www.inkscape.org/) -->

<svg
   xmlns:dc="http://purl.org/dc/elements/1.1/"
   xmlns:cc="http://creativecommons.org/ns#"
   xmlns:rdf="http://www.w3.org/1999/02/22-rdf-syntax-ns#"
   xmlns:svg="http://www.w3.org/2000/svg"
   xmlns="http://www.w3.org/2000/svg"
   xmlns:sodipodi="http://sodipodi.sourceforge.net/DTD/sodipodi-0.dtd"
   xmlns:inkscape="http://www.inkscape.org/namespaces/inkscape"
   width="150"
   height="150"
   viewBox="0 0 150 150"
   id="svg4226"
   version="1.1"
   inkscape:version="0.91 r13725"
   sodipodi:docname="start-cocalc.svg"
   inkscape:export-filename="/home/hsy/d/cocalc/artwork/start-cocalc.png"
   inkscape:export-xdpi="180"
   inkscape:export-ydpi="180">
  <defs
     id="defs4228" />
  <sodipodi:namedview
     id="base"
     pagecolor="#ffffff"
     bordercolor="#00cc07"
     borderopacity="1"
     inkscape:pageopacity="0"
     inkscape:pageshadow="2"
     inkscape:zoom="4"
     inkscape:cx="-19.494206"
     inkscape:cy="90.62945"
     inkscape:document-units="px"
     inkscape:current-layer="layer1"
     showgrid="true"
     units="px"
     inkscape:showpageshadow="false"
     borderlayer="true"
     inkscape:snap-page="true"
     inkscape:snap-others="true"
     inkscape:snap-bbox="true"
     inkscape:bbox-paths="true"
     inkscape:bbox-nodes="true"
     inkscape:window-width="2560"
     inkscape:window-height="1410"
     inkscape:window-x="0"
     inkscape:window-y="30"
     inkscape:window-maximized="1"
     showguides="false"
     inkscape:guide-bbox="true"
     fit-margin-top="2"
     fit-margin-left="2"
     fit-margin-right="2"
     fit-margin-bottom="2"
     inkscape:snap-center="true"
     inkscape:snap-intersection-paths="true"
     inkscape:object-paths="true"
     inkscape:object-nodes="true">
    <inkscape:grid
       type="axonomgrid"
       id="grid4337"
       units="mm"
       empspacing="5"
       gridanglex="45"
       gridanglez="45"
       spacingy="8.8582677" />
  </sodipodi:namedview>
  <metadata
     id="metadata4231">
    <rdf:RDF>
      <cc:Work
         rdf:about="">
        <dc:format>image/svg+xml</dc:format>
        <dc:type
           rdf:resource="http://purl.org/dc/dcmitype/StillImage" />
        <dc:title></dc:title>
      </cc:Work>
    </rdf:RDF>
  </metadata>
  <g
     inkscape:label="Layer 1"
     inkscape:groupmode="layer"
     id="layer1"
     transform="translate(7.0714263,-880.47463)">
    <path
       style="color:#000000;clip-rule:nonzero;display:inline;overflow:visible;visibility:visible;opacity:1;isolation:auto;mix-blend-mode:normal;color-interpolation:sRGB;color-interpolation-filters:linearRGB;solid-color:#000000;solid-opacity:1;fill:#faa910;fill-opacity:1;fill-rule:nonzero;stroke:none;stroke-width:3;stroke-linecap:butt;stroke-linejoin:miter;stroke-miterlimit:4;stroke-dasharray:none;stroke-dashoffset:0;stroke-opacity:1;color-rendering:auto;image-rendering:auto;shape-rendering:auto;text-rendering:auto;enable-background:accumulate"
       d="M 0,0 150,150 150,0 Z"
       transform="translate(-7.0714263,880.47463)"
       id="rect4243"
       inkscape:connector-curvature="0"
       sodipodi:nodetypes="cccc" />
    <g
       style="fill:#ffffff;fill-opacity:1"
       transform="matrix(0.53357748,0.53357748,-0.53357748,0.53357748,235.68198,474.33376)"
       id="g4181">
      <path
         inkscape:connector-curvature="0"
         transform="translate(246.83107,478.3255)"
         id="path4183"
         d="m 46.84375,14.449219 c -1.048339,0 -2.069543,0.105796 -3.056641,0.30664 -0.987098,0.200844 -1.939789,0.497162 -2.845703,0.878907 -0.905914,0.381744 -1.765526,0.849876 -2.570312,1.392578 -0.804787,0.542702 -1.554566,1.160034 -2.238282,1.84375 -0.683715,0.683716 -1.301048,1.433494 -1.84375,2.238281 -0.542701,0.804787 -1.010833,1.664399 -1.392578,2.570313 -0.381744,0.905913 -0.678062,1.858605 -0.878906,2.845703 -0.200844,0.987098 -0.30664,2.008302 -0.30664,3.05664 0,1.048339 0.105796,2.071496 0.30664,3.058594 0.200844,0.987098 0.497162,1.937836 0.878906,2.84375 0.381745,0.905914 0.849877,1.767478 1.392578,2.572266 0.542702,0.804787 1.160035,1.554564 1.84375,2.238281 0.683716,0.683716 1.433495,1.301047 2.238282,1.84375 0.804786,0.542702 1.664398,1.010833 2.570312,1.392578 0.905914,0.381745 1.858605,0.678062 2.845703,0.878906 0.987098,0.200844 2.008302,0.304688 3.056641,0.304688 1.048339,0 2.071496,-0.103844 3.058594,-0.304688 0.987098,-0.200844 1.939789,-0.497161 2.845703,-0.878906 0.905914,-0.381745 1.765526,-0.849876 2.570312,-1.392578 0.804787,-0.542703 1.554566,-1.160034 2.238282,-1.84375 0.683716,-0.683717 1.301048,-1.433494 1.84375,-2.238281 0.542702,-0.804788 1.010833,-1.666352 1.392578,-2.572266 0.381744,-0.905914 0.678062,-1.856652 0.878906,-2.84375 0.200844,-0.987098 0.304687,-2.010255 0.304687,-3.058594 0,-1.048338 -0.103843,-2.069542 -0.304687,-3.05664 -0.200844,-0.987098 -0.497162,-1.93979 -0.878906,-2.845703 -0.381745,-0.905914 -0.849876,-1.765526 -1.392578,-2.570313 -0.542702,-0.804787 -1.160034,-1.554565 -1.84375,-2.238281 -0.683716,-0.683716 -1.433495,-1.301048 -2.238282,-1.84375 -0.804786,-0.542702 -1.664398,-1.010834 -2.570312,-1.392578 -0.905914,-0.381745 -1.858605,-0.678063 -2.845703,-0.878907 -0.987098,-0.200844 -2.010255,-0.30664 -3.058594,-0.30664 z"
         style="color:#000000;clip-rule:nonzero;display:inline;overflow:visible;visibility:visible;opacity:1;isolation:auto;mix-blend-mode:normal;color-interpolation:sRGB;color-interpolation-filters:linearRGB;solid-color:#000000;solid-opacity:1;fill:#ffffff;fill-opacity:1;fill-rule:nonzero;stroke:none;stroke-width:1;stroke-linecap:square;stroke-linejoin:round;stroke-miterlimit:4;stroke-dasharray:none;stroke-dashoffset:0;stroke-opacity:1;color-rendering:auto;image-rendering:auto;shape-rendering:auto;text-rendering:auto;enable-background:accumulate" />
      <path
         inkscape:connector-curvature="0"
         id="path4185"
         transform="translate(246.83107,478.3255)"
         d="m 44.34375,4.7070312 a 25,25 0 0 0 -22.5,24.8749998 25,25 0 0 0 2.226562,10.261719 l 4.341797,-2.507812 c -0.503213,-1.189907 -0.894442,-2.437476 -1.160156,-3.730469 -0.26715,-1.299982 -0.408203,-2.646328 -0.408203,-4.023438 0,-1.377108 0.141053,-2.721503 0.408203,-4.021484 0.26715,-1.299981 0.660815,-2.554292 1.167969,-3.75 0.507153,-1.195708 1.127645,-2.332195 1.847656,-3.396485 0.720011,-1.064288 1.53959,-2.057167 2.445313,-2.96289 0.905722,-0.905723 1.898602,-1.725301 2.96289,-2.445313 1.064289,-0.720011 2.200777,-1.340502 3.396485,-1.847656 1.195708,-0.507153 2.450018,-0.900819 3.75,-1.1679686 0.500222,-0.1027971 1.008777,-0.1814898 1.521484,-0.2460938 l 0,-5.0371094 z m 5,0.025391 0,5.0117187 c 0.513417,0.064621 1.022878,0.1432274 1.523438,0.2460938 1.299981,0.2671493 2.554292,0.6608153 3.75,1.1679683 1.195706,0.507154 2.332195,1.127645 3.396484,1.847656 1.064288,0.720012 2.057168,1.53959 2.96289,2.445313 0.905724,0.905723 1.725302,1.898602 2.445313,2.96289 0.720011,1.064289 1.340503,2.200777 1.847656,3.396485 0.507154,1.195708 0.900819,2.450019 1.167969,3.75 0.26715,1.299981 0.40625,2.644376 0.40625,4.021484 0,1.37711 -0.1391,2.723456 -0.40625,4.023438 -0.26576,1.293217 -0.65877,2.540376 -1.162109,3.730469 l 4.333984,2.501953 a 25,25 0 0 0 2.234375,-10.25586 25,25 0 0 0 -22.5,-24.8496088 z M 30.939453,41.650391 26.572266,44.171875 A 25,25 0 0 0 46.84375,54.582031 25,25 0 0 0 67.109375,44.167969 L 62.75,41.650391 c -0.550437,0.723588 -1.131745,1.422761 -1.773438,2.064453 -0.905722,0.905722 -1.898602,1.725301 -2.96289,2.445312 -1.064289,0.720011 -2.200777,1.340503 -3.396484,1.847656 -1.195708,0.507154 -2.450019,0.90082 -3.75,1.167969 -1.299982,0.26715 -2.646329,0.40625 -4.023438,0.40625 -1.377109,0 -2.721503,-0.1391 -4.021484,-0.40625 -1.299982,-0.267149 -2.554292,-0.660813 -3.75,-1.167969 -1.195708,-0.507153 -2.332196,-1.127645 -3.396485,-1.847656 -1.064288,-0.720011 -2.057168,-1.53959 -2.96289,-2.445312 -0.641692,-0.641692 -1.223,-1.340865 -1.773438,-2.064453 z"
         style="color:#000000;clip-rule:nonzero;display:inline;overflow:visible;visibility:visible;opacity:1;isolation:auto;mix-blend-mode:normal;color-interpolation:sRGB;color-interpolation-filters:linearRGB;solid-color:#000000;solid-opacity:1;fill:#ffffff;fill-opacity:1;fill-rule:nonzero;stroke:none;stroke-width:1;stroke-linecap:square;stroke-linejoin:round;stroke-miterlimit:4;stroke-dasharray:none;stroke-dashoffset:0;stroke-opacity:1;color-rendering:auto;image-rendering:auto;shape-rendering:auto;text-rendering:auto;enable-background:accumulate" />
    </g>
    <g
       transform="matrix(0.94579495,0.94579495,-0.94311938,0.94311938,963.79457,-91.260279)"
       style="font-style:normal;font-variant:normal;font-weight:normal;font-stretch:normal;font-size:24.44582176px;line-height:100%;font-family:CoCalc;-inkscape-font-specification:CoCalc;text-align:start;letter-spacing:0px;word-spacing:0px;writing-mode:lr-tb;text-anchor:start;fill:#ffffff;fill-opacity:1;stroke:none;stroke-width:1px;stroke-linecap:butt;stroke-linejoin:miter;stroke-opacity:1"
       id="text4155">
      <path
         d="m 30.144606,1026.3844 c 1.246737,0.3178 2.566811,0.3667 3.886886,0.1222 1.320074,-0.2444 2.517919,-0.6845 3.593535,-1.3934 l -2.933498,-2.1023 c -0.88005,0.4644 -2.640149,0.4889 -3.813548,0.22 -0.831158,-0.1956 -1.588979,-0.5378 -2.273462,-1.0512 -0.684483,-0.4889 -1.246737,-1.0512 -1.735653,-1.7601 -0.488917,-0.7334 -0.782267,-1.5401 -0.953387,-2.4201 -0.171121,-0.8801 -0.122229,-1.7357 0.07334,-2.5913 0.195567,-0.8311 0.537808,-1.6134 1.026725,-2.2735 0.488916,-0.6844 1.05117,-1.2467 1.784545,-1.7356 0.708928,-0.4645 1.540086,-0.7578 2.420136,-0.9289 1.735653,-0.3178 3.349078,0.049 4.864719,1.0756 l 1.882328,-2.6646 c -1.051171,-0.7334 -2.200124,-1.2223 -3.446861,-1.5401 -1.246737,-0.3178 -2.542366,-0.3423 -3.86244,-0.098 -1.320074,0.2445 -2.51792,0.7089 -3.593536,1.4179 -1.100062,0.7089 -2.004557,1.5645 -2.737932,2.6157 -0.708929,1.0267 -1.197845,2.1512 -1.515641,3.3979 -0.317795,1.2712 -0.366687,2.5668 -0.122229,3.8869 0.244458,1.2957 0.684483,2.469 1.393412,3.5691 0.708929,1.1001 1.613424,2.0046 2.640149,2.7379 1.05117,0.709 2.151232,1.1979 3.422415,1.5157 z"
         id="path4171"
         inkscape:connector-curvature="0"
         style="fill:#ffffff;fill-opacity:1" />
      <path
         d="m 48.950009,1007.1211 c -2.713486,0 -5.011393,0.9778 -6.893722,2.8846 -1.906774,1.9068 -2.884607,4.2047 -2.884607,6.8937 0,2.7135 0.977833,4.987 2.884607,6.8937 1.906775,1.9068 4.180236,2.8846 6.893722,2.8846 2.713486,0 4.986948,-0.9778 6.893722,-2.8846 1.93122,-1.8823 2.909053,-4.1802 2.909053,-6.8937 0,-2.689 -0.977833,-4.9869 -2.909053,-6.8937 -1.906774,-1.9068 -4.180236,-2.8846 -6.893722,-2.8846 z m 0,3.2757 c 1.784545,0 3.324632,0.6356 4.595815,1.9068 1.271182,1.2712 1.906774,2.8113 1.906774,4.5958 0,1.7846 -0.611146,3.3246 -1.906774,4.6203 -1.271183,1.2711 -2.81127,1.8823 -4.595815,1.8823 -1.784545,0 -3.349077,-0.6112 -4.62026,-1.8823 -1.271183,-1.2712 -1.882328,-2.8357 -1.882328,-4.6203 0,-1.7845 0.611145,-3.3246 1.882328,-4.5958 1.295628,-1.2956 2.835715,-1.9068 4.62026,-1.9068 z"
         id="path4173"
         inkscape:connector-curvature="0"
         style="fill:#ffffff;fill-opacity:1" />
      <path
         d="m 68.461703,1026.3844 c 1.246736,0.3178 2.566811,0.3667 3.886885,0.1222 1.320075,-0.2444 2.51792,-0.6845 3.593536,-1.3934 l -2.933499,-2.1023 c -0.880049,0.4644 -2.640148,0.4889 -3.813548,0.22 -0.831158,-0.1956 -1.588978,-0.5378 -2.273461,-1.0512 -0.684483,-0.4889 -1.246737,-1.0512 -1.735654,-1.7601 -0.488916,-0.7334 -0.782266,-1.5401 -0.953387,-2.4201 -0.17112,-0.8801 -0.122229,-1.7357 0.07334,-2.5913 0.195566,-0.8311 0.537808,-1.6134 1.026724,-2.2735 0.488917,-0.6844 1.051171,-1.2467 1.784545,-1.7356 0.708929,-0.4645 1.540087,-0.7578 2.420137,-0.9289 1.735653,-0.3178 3.349077,0.049 4.864718,1.0756 l 1.882329,-2.6646 c -1.051171,-0.7334 -2.200124,-1.2223 -3.446861,-1.5401 -1.246737,-0.3178 -2.542366,-0.3423 -3.86244,-0.098 -1.320075,0.2445 -2.51792,0.7089 -3.593536,1.4179 -1.100062,0.7089 -2.004557,1.5645 -2.737932,2.6157 -0.708929,1.0267 -1.197845,2.1512 -1.515641,3.3979 -0.317796,1.2712 -0.366687,2.5668 -0.122229,3.8869 0.244458,1.2957 0.684483,2.469 1.393412,3.5691 0.708929,1.1001 1.613424,2.0046 2.640149,2.7379 1.05117,0.709 2.151232,1.1979 3.422415,1.5157 z"
         id="path4175"
         inkscape:connector-curvature="0"
         style="fill:#ffffff;fill-opacity:1" />
      <path
         d="m 84.440705,1020.1751 2.884607,-5.7447 2.860161,5.7447 3.666873,0 -6.527034,-13.054 -9.778329,19.5566 3.617981,0 1.662316,-3.2757 1.613425,-3.2269 z m 11.025065,3.2513 -3.617981,0 1.613424,3.2513 3.642427,0 -1.63787,-3.2513 z"
         id="path4177"
         inkscape:connector-curvature="0"
         style="fill:#ffffff;fill-opacity:1" />
      <path
         d="m 103.8672,1023.402 -3.25129,3.2757 13.02962,0 0,-3.2757 -9.77833,0 z m -3.25129,-16.2809 0,0.5378 0,14.5941 3.25129,-3.2757 0,-11.3184 0,-0.5378 -3.25129,0 z"
         id="path4179"
         inkscape:connector-curvature="0"
         style="fill:#ffffff;fill-opacity:1" />
      <path
         d="m 122.99189,1026.3844 c 1.24674,0.3178 2.56681,0.3667 3.88688,0.1222 1.32008,-0.2444 2.51792,-0.6845 3.59354,-1.3934 l -2.9335,-2.1023 c -0.88005,0.4644 -2.64015,0.4889 -3.81355,0.22 -0.83116,-0.1956 -1.58898,-0.5378 -2.27346,-1.0512 -0.68448,-0.4889 -1.24674,-1.0512 -1.73565,-1.7601 -0.48892,-0.7334 -0.78227,-1.5401 -0.95339,-2.4201 -0.17112,-0.8801 -0.12223,-1.7357 0.0733,-2.5913 0.19557,-0.8311 0.53781,-1.6134 1.02672,-2.2735 0.48892,-0.6844 1.05117,-1.2467 1.78455,-1.7356 0.70893,-0.4645 1.54008,-0.7578 2.42013,-0.9289 1.73566,-0.3178 3.34908,0.049 4.86472,1.0756 l 1.88233,-2.6646 c -1.05117,-0.7334 -2.20012,-1.2223 -3.44686,-1.5401 -1.24674,-0.3178 -2.54237,-0.3423 -3.86244,-0.098 -1.32007,0.2445 -2.51792,0.7089 -3.59354,1.4179 -1.10006,0.7089 -2.00455,1.5645 -2.73793,2.6157 -0.70893,1.0267 -1.19784,2.1512 -1.51564,3.3979 -0.31779,1.2712 -0.36669,2.5668 -0.12223,3.8869 0.24446,1.2957 0.68449,2.469 1.39341,3.5691 0.70893,1.1001 1.61343,2.0046 2.64015,2.7379 1.05117,0.709 2.15124,1.1979 3.42242,1.5157 z"
         id="path4181"
         inkscape:connector-curvature="0"
         style="fill:#ffffff;fill-opacity:1" />
    </g>
    <g
       transform="matrix(0.55989906,0.55989906,-0.55989906,0.55989906,46.171729,187.88032)"
       style="font-style:normal;font-variant:normal;font-weight:normal;font-stretch:normal;font-size:20.97611237px;line-height:100%;font-family:CoCalc;-inkscape-font-specification:CoCalc;text-align:start;letter-spacing:0px;word-spacing:0px;writing-mode:lr-tb;text-anchor:start;fill:#ffffff;fill-opacity:1;stroke:none;stroke-width:1px;stroke-linecap:butt;stroke-linejoin:miter;stroke-opacity:1"
       id="text4226">
      <path
         d="m 662.11606,615.72448 -2.78983,2.8108 11.18027,0 0,-2.8108 -8.39044,0 z m -2.78983,-13.97009 0,0.46147 0,12.52274 2.78983,-2.8108 0,-9.71194 0,-0.46147 -2.78983,0 z"
         id="path4231"
         inkscape:connector-curvature="0"
         style="fill:#ffffff;fill-opacity:1" />
      <path
         d="m 679.14473,612.95563 2.47518,-4.92938 2.45421,4.92938 3.14641,0 -5.60062,-11.20124 -8.39044,16.78089 3.10446,0 1.42638,-2.8108 1.38442,-2.76885 z m 9.46023,2.78983 -3.10447,0 1.38443,2.78982 3.12544,0 -1.4054,-2.78982 z"
         id="path4233"
         inkscape:connector-curvature="0"
         style="fill:#ffffff;fill-opacity:1" />
      <path
         d="m 702.13893,611.55023 c 0,1.13271 -0.4405,2.11859 -1.25857,2.93666 -0.81807,0.81807 -1.80394,1.23759 -2.95763,1.23759 -1.15369,0 -2.16054,-0.39855 -2.97861,-1.23759 -0.79709,-0.79709 -1.19564,-1.78297 -1.19564,-2.93666 l 0,-9.79584 -2.78982,0 0,9.79584 c 0,1.90883 0.67124,3.58692 2.03468,4.95037 1.36345,1.36344 3.02056,2.03468 4.92939,2.03468 1.90883,0 3.58691,-0.67124 4.95036,-2.03468 1.38443,-1.36345 2.05566,-3.02056 2.05566,-4.95037 l -2.78982,0 z"
         id="path4235"
         inkscape:connector-curvature="0"
         style="fill:#ffffff;fill-opacity:1" />
      <path
         d="m 714.27247,601.75439 0,10.04756 -11.15929,-10.04756 0,4.23717 13.94912,12.54372 0,-0.021 0,-0.021 0,-16.73894 -2.78983,0 z"
         id="path4237"
         inkscape:connector-curvature="0"
         style="fill:#ffffff;fill-opacity:1" />
      <path
         d="m 726.24889,618.28356 c 1.06978,0.27269 2.20249,0.31465 3.3352,0.10489 1.13271,-0.20977 2.16054,-0.58734 3.08349,-1.19564 l -2.51713,-1.80395 c -0.75514,0.39855 -2.26542,0.41952 -3.27227,0.18879 -0.71319,-0.16781 -1.36345,-0.46148 -1.95078,-0.90198 -0.58733,-0.41952 -1.06978,-0.90197 -1.48931,-1.51028 -0.41952,-0.62928 -0.67123,-1.32149 -0.81806,-2.07663 -0.14684,-0.75514 -0.10489,-1.48931 0.0629,-2.22347 0.16781,-0.71319 0.46148,-1.38442 0.881,-1.95078 0.41952,-0.58733 0.90197,-1.06978 1.53126,-1.4893 0.6083,-0.39855 1.32149,-0.65026 2.07663,-0.79709 1.48931,-0.27269 2.87373,0.042 4.17425,0.92294 l 1.61516,-2.28639 c -0.90197,-0.62928 -1.88785,-1.04881 -2.95763,-1.3215 -1.06978,-0.27269 -2.18152,-0.29366 -3.31423,-0.0839 -1.13271,0.20976 -2.16054,0.60831 -3.08349,1.21661 -0.94392,0.60831 -1.72004,1.34247 -2.34932,2.24445 -0.60831,0.88099 -1.02783,1.8459 -1.30052,2.91568 -0.27269,1.09075 -0.31464,2.20249 -0.10488,3.3352 0.20976,1.11173 0.58733,2.11859 1.19564,3.06251 0.6083,0.94393 1.38442,1.72004 2.26542,2.34933 0.90197,0.6083 1.84589,1.02783 2.93665,1.30051 z"
         id="path4239"
         inkscape:connector-curvature="0"
         style="fill:#ffffff;fill-opacity:1" />
      <path
         d="m 745.89055,601.75439 0,6.98504 -8.39045,0 -2.78982,2.8108 0,6.98505 2.78982,0 0,-6.98505 8.39045,0 0,6.98505 2.78982,0 0,-16.78089 -2.78982,0 z"
         id="path4241"
         inkscape:connector-curvature="0"
         style="fill:#ffffff;fill-opacity:1" />
    </g>
  </g>
</svg>
